<?xml version="1.0" encoding="utf-8"?>
<!-- Generator: Adobe Illustrator 23.0.1, SVG Export Plug-In . SVG Version: 6.00 Build 0)  -->
<svg version="1.1" id="Capa_1" xmlns="http://www.w3.org/2000/svg" xmlns:xlink="http://www.w3.org/1999/xlink" x="0px" y="0px"
	 viewBox="0 0 387.7 135.4" style="enable-background:new 0 0 387.7 135.4;" xml:space="preserve">
<style type="text/css">
	.st0{fill:#7B868C;}
</style>
<g>
	<g>
		<g>
			<path class="st0" d="M232.5,92.3c0,0.6-0.2,1-0.8,1.2c-1.6,0.5-3,0.8-4.4,0.8c-3.7,0-6.2-1.3-7.5-4c-3,2.7-6.6,4-10.6,4
				c-5,0-9.1-1.5-12.3-4.6c-3.2-3.1-4.8-7-4.8-11.8s1.6-8.8,4.8-11.8c3.2-3.1,7.3-4.6,12.3-4.6c3.4,0,6.5,1,9.1,2.8v-0.9
				c0-0.6,0.3-1,1-1h5.9c0.6,0,1,0.3,1,1v21.7c0,0.7,0.2,1.3,0.6,1.7c0.4,0.4,1,0.6,1.6,0.6c0.7,0,1.5-0.1,2.4-0.3
				c0.7-0.1,1.1,0.1,1.2,0.8L232.5,92.3z M209.3,87.8c2.7,0,4.8-0.9,6.5-2.8s2.5-4.3,2.5-7.2s-0.8-5.3-2.5-7.2s-3.9-2.8-6.5-2.8
				c-2.7,0-4.9,0.9-6.7,2.8c-1.7,1.9-2.6,4.3-2.6,7.2c0,2.9,0.9,5.3,2.6,7.2C204.4,86.8,206.6,87.8,209.3,87.8z"/>
			<path class="st0" d="M246.1,94.2c-2.7,0-4.9-0.7-6.5-2c-1.7-1.3-2.5-3-2.5-5.2V48.6c0-0.6,0.3-1,1-1h5.9c0.6,0,1,0.3,1,1v36.4
				c0,0.7,0.2,1.3,0.6,1.7c0.4,0.4,1,0.6,1.6,0.6s1.5-0.1,2.4-0.3c0.7-0.1,1.1,0.1,1.2,0.8l0.5,4.5c0.1,0.6-0.2,1-0.8,1.2
				C248.9,93.9,247.5,94.2,246.1,94.2z"/>
			<path class="st0" d="M259.8,55.5c-1.4,0-2.5-0.4-3.5-1.3c-1-0.9-1.4-2-1.4-3.2s0.5-2.3,1.4-3.2c0.9-0.9,2.1-1.3,3.5-1.3
				c1.3,0,2.5,0.4,3.5,1.3s1.5,2,1.5,3.2s-0.5,2.3-1.5,3.2S261.2,55.5,259.8,55.5z M264.9,94.2c-2.7,0-4.9-0.7-6.5-2
				c-1.7-1.3-2.5-3-2.5-5.2V63.2c0-0.6,0.3-1,1-1h5.9c0.6,0,1,0.3,1,1v21.7c0,0.7,0.2,1.3,0.6,1.7c0.4,0.4,1,0.6,1.6,0.6
				s1.5-0.1,2.4-0.3c0.7-0.1,1.1,0.1,1.2,0.8l0.5,4.5c0.1,0.6-0.2,1-0.8,1.2C267.7,93.9,266.2,94.2,264.9,94.2z"/>
			<path class="st0" d="M287.7,94.2c-4.4,0-7.9-0.9-10.6-2.7c-2.7-1.8-4.3-4.3-4.7-7.5c-0.1-0.7,0.2-1,1-1l5.4,0.1
				c0.5,0,0.9,0.3,1,0.8c0.9,2.9,3.6,4.3,7.9,4.3c1.9,0,3.4-0.3,4.5-1s1.7-1.5,1.7-2.5c0-1.2-0.7-2.2-2.1-2.7s-3.1-1-5.1-1.3
				s-4-0.6-6-1s-3.7-1.3-5.1-2.7s-2.1-3.3-2.1-5.8c0-2.9,1.2-5.3,3.7-7.1c2.5-1.8,5.8-2.7,9.9-2.7c3.8,0,7,0.8,9.5,2.5
				s4.1,3.9,4.5,6.6c0.1,0.7-0.2,1-1,1h-5.4c-0.6,0-0.9-0.2-1-0.6c-0.4-1.2-1.2-2.1-2.4-2.8s-2.6-1.1-4.2-1.1
				c-1.8,0-3.2,0.3-4.2,0.9s-1.6,1.4-1.6,2.4c0,1.1,0.5,2,1.5,2.6c1,0.6,2.3,1,3.7,1.2c1.5,0.2,3.1,0.4,4.9,0.8s3.4,0.8,4.9,1.3
				c1.5,0.5,2.7,1.4,3.7,2.7c1,1.3,1.5,3,1.5,5.1c0,3-1.3,5.4-3.8,7.3C295.2,93.3,291.9,94.2,287.7,94.2z"/>
			<path class="st0" d="M322.6,94.2c-5.2,0-9.3-1.5-12.5-4.5c-3.1-3-4.7-7-4.7-11.9s1.6-8.9,4.7-11.9c3.1-3,7.3-4.5,12.5-4.5
				c4.1,0,7.5,1,10.4,3c2.8,2,4.6,4.7,5.3,8.1c0.1,0.7-0.1,1-0.8,1h-6.1c-0.5,0-0.9-0.3-1-0.8c-0.5-1.4-1.4-2.5-2.8-3.3
				c-1.4-0.8-3-1.3-4.8-1.3c-2.8,0-5,0.9-6.7,2.7c-1.7,1.8-2.5,4.1-2.5,7.1c0,2.9,0.9,5.3,2.5,7.1c1.7,1.8,4,2.7,6.7,2.7
				c1.9,0,3.5-0.4,4.8-1.3s2.3-2,2.8-3.3c0.2-0.6,0.5-0.8,1-0.8h6.1c0.7,0,1,0.3,0.8,1c-0.7,3.4-2.4,6-5.3,8.1
				C330.2,93.2,326.7,94.2,322.6,94.2z"/>
			<path class="st0" d="M371.9,89.7c-3.2,3-7.3,4.5-12.5,4.5s-9.3-1.5-12.5-4.5c-3.2-3-4.7-7-4.7-11.9s1.6-8.9,4.7-11.9
				c3.2-3,7.3-4.5,12.5-4.5s9.3,1.5,12.5,4.5c3.2,3,4.7,7,4.7,11.9S375.1,86.7,371.9,89.7z M352.6,84.8c1.7,1.8,4,2.6,6.8,2.6
				c2.8,0,5-0.9,6.8-2.6c1.7-1.8,2.6-4.1,2.6-7s-0.9-5.3-2.6-7s-4-2.6-6.8-2.6c-2.8,0-5.1,0.9-6.8,2.6s-2.6,4.1-2.6,7
				C350.1,80.7,350.9,83,352.6,84.8z"/>
			<path class="st0" d="M186,48.1c0.5,0,1,0.4,1,1v27.9c0,5.4-1.6,9.6-4.8,12.7c-3.2,3-7.6,4.6-13.2,4.6c-4.8,0-8.8-1.3-11.9-3.8
				s-4.9-5.9-5.3-10.1c-0.1-0.7,0.2-1,1-1h6.3c0.6,0,0.9,0.3,1,0.9c0.3,2.1,1.4,3.7,3.1,5s3.8,1.9,6.4,1.9c2.8,0,5-1,6.6-2.8
				c1.7-1.9,2.5-4.4,2.5-7.5V57.3c0-2.6-2.8-3.1-4.5-3.2h-0.5c-0.4,0-0.8-0.4-0.8-0.8v-4.4c0-0.4,0.4-0.8,0.8-0.8L186,48.1L186,48.1
				z"/>
		</g>
		<g>
			<path class="st0" d="M172.7,110.5c2,0,4,0.9,4.6,3.2h-1.7c-0.6-1.2-1.6-1.7-2.9-1.7c-2.1,0-3.4,1.6-3.4,3.7
				c0,2.2,1.3,3.7,3.4,3.7c1.8,0,3-0.7,3.3-2.7h-3.2v-1.5h4.8c0.1,3.1-1.4,5.7-4.9,5.7c-2.8,0-5.2-2-5.2-5.3
				C167.5,112.5,169.9,110.5,172.7,110.5z"/>
			<path class="st0" d="M185.3,121c-2.8,0-5.2-1.9-5.2-5.2c0-3.3,2.4-5.2,5.2-5.2c2.8,0,5.2,1.9,5.2,5.2
				C190.5,118.9,188.4,121,185.3,121z M185.3,119.4c1.9,0,3.5-1.3,3.5-3.6c0-2.3-1.6-3.7-3.5-3.7c-1.9,0-3.5,1.3-3.5,3.7
				C181.8,118.2,183.4,119.4,185.3,119.4z"/>
			<path class="st0" d="M199.9,115.6c1.1,0.4,1.6,1.2,1.6,2.4c0,1.8-1.3,3-3.2,3h-4.6v-10.2h4.2c1.9,0,3.2,1,3.2,2.9
				C201.1,114.4,200.7,115.2,199.9,115.6z M195.4,112.1v2.9h2.3c1,0,1.6-0.4,1.7-1.4c0-1-0.7-1.5-1.7-1.5H195.4z M195.4,116.4v3h2.8
				c1,0,1.6-0.5,1.7-1.5c0-0.5-0.2-0.9-0.5-1.2c-0.4-0.3-0.9-0.3-1.3-0.3L195.4,116.4L195.4,116.4z"/>
			<path class="st0" d="M209.1,119.5v1.4h-5v-1.4h1.6V112h-1.5v-1.4h4.7v1.4h-1.5v7.5H209.1z"/>
			<path class="st0" d="M218.4,112.2h-4.5v2.7h4.3v1.5h-4.3v3h4.6v1.5h-6.3v-10.2h6.2V112.2z"/>
			<path class="st0" d="M230.2,120.7v0.2h-1.7l-2.5-3.6h-2.2v3.6h-1.7v-10.2h4.2c2.2,0,3.5,1.5,3.5,3.3c0,1.4-0.9,2.6-2.1,3.1
				L230.2,120.7z M226.1,115.9c1.1,0,1.9-0.8,1.9-1.9c0-1.1-0.8-1.9-1.9-1.9h-2.5v3.8H226.1z"/>
			<path class="st0" d="M234.7,113.9l0.1,3.2v3.7h-1.7v-10.3h0.6l6.2,6.9l-0.1-3.1v-3.7h1.7v10.3H241L234.7,113.9z"/>
			<path class="st0" d="M250,121c-2.8,0-5.2-1.9-5.2-5.2c0-3.3,2.4-5.2,5.2-5.2c2.8,0,5.2,1.9,5.2,5.2
				C255.2,118.9,253.1,121,250,121z M250,119.4c1.9,0,3.5-1.3,3.5-3.6c0-2.3-1.6-3.7-3.5-3.7c-1.9,0-3.5,1.3-3.5,3.7
				C246.5,118.2,248.1,119.4,250,119.4z"/>
			<path class="st0" d="M267.1,110.7c3.2,0,5,2.4,5,5.1s-1.8,5.1-5,5.1h-3.7v-10.2L267.1,110.7L267.1,110.7z M267.1,119.4
				c2.1,0,3.3-1.6,3.3-3.6s-1.2-3.6-3.3-3.6h-2v7.1H267.1z"/>
			<path class="st0" d="M281.6,112.2h-4.5v2.7h4.3v1.5h-4.3v3h4.6v1.5h-6.3v-10.2h6.2V112.2z"/>
			<path class="st0" d="M286.8,119.4h4.4v1.5h-6.1v-10.2h1.7V119.4z"/>
			<path class="st0" d="M304.7,112.2h-4.5v2.7h4.3v1.5h-4.3v3h4.6v1.5h-6.3v-10.2h6.2V112.2z"/>
			<path class="st0" d="M309.2,118c0.1,1.2,1.3,1.5,2.4,1.5c1.1,0,2.4-0.3,2.4-1.5c0-1.4-1.4-1.5-2.6-1.6c-1.9-0.2-3.7-0.8-3.7-2.8
				c0-2.1,1.9-3,3.9-3c2,0,3.8,0.9,3.8,3h-1.6c-0.1-1.1-1.3-1.5-2.3-1.5c-0.9,0-2.1,0.3-2.1,1.5s1.2,1.3,2.3,1.5c2.1,0.2,4,0.6,4,3
				c0,2.2-2.1,3-4,3c-2,0-4.1-0.9-4.1-3L309.2,118L309.2,118z"/>
			<path class="st0" d="M317.8,112.2v-1.5h7.6v1.5h-3v8.7h-1.7v-8.7H317.8z"/>
			<path class="st0" d="M329,118.8l-1,2.1h-1.8v-0.2l4.7-10.1h0.8l4.7,10.1v0.2h-1.8l-1-2.1H329z M329.6,117.4h3.6l-1.8-4.1
				L329.6,117.4z"/>
			<path class="st0" d="M342.8,110.7c3.2,0,5,2.4,5,5.1s-1.8,5.1-5,5.1h-3.7v-10.2L342.8,110.7L342.8,110.7z M342.7,119.4
				c2.1,0,3.3-1.6,3.3-3.6s-1.2-3.6-3.3-3.6h-2v7.1H342.7z"/>
			<path class="st0" d="M355.6,121c-2.8,0-5.2-1.9-5.2-5.2c0-3.3,2.4-5.2,5.2-5.2c2.8,0,5.2,1.9,5.2,5.2
				C360.8,118.9,358.7,121,355.6,121z M355.6,119.4c1.9,0,3.5-1.3,3.5-3.6c0-2.3-1.6-3.7-3.5-3.7c-1.9,0-3.5,1.3-3.5,3.7
				C352.1,118.2,353.7,119.4,355.6,119.4z"/>
		</g>
	</g>
	<rect x="136.7" y="48.1" class="st0" width="2" height="73"/>
	<g>
		<g>
			<path class="st0" d="M66.4,23.4v5.2c0,0,0.9-0.2,2.1,0l0,0v-5.2C67.4,23.1,66.4,23.4,66.4,23.4z"/>
			<path class="st0" d="M44.6,24.8c0,0.3,0.2,0.6,0.5,0.8c2.3,1,4.6,1.6,6.9,1.6c3.1,0,6.2-1,9-2.9c3.8-2.6,8.9-2.7,12.8-0.5
				c-0.6,0.6-1.7,1.3-3.4,1.3h-0.8v1.9h0.8c3.8,0,5.4-2.6,5.6-2.9l0,0c0,0,0,0,0,0l0,0c0.1-0.1,0.1-0.3,0.1-0.5v-11
				c0-0.3-0.1-0.6-0.4-0.8c-4.6-3.2-11.1-3.2-15.8,0c-4.3,3-9.3,3.4-14.1,1.2c-0.4-0.2-0.9,0-1.2,0.3c-0.2,0.4-0.2,0.9,0.2,1.2
				l6,5.2l-6,4.4C44.7,24.2,44.5,24.5,44.6,24.8z M52.9,20.4c0.2-0.2,0.4-0.4,0.4-0.7c0-0.3-0.1-0.5-0.3-0.7l-3.5-3.1
				c4,0.7,8-0.2,11.5-2.7c3.9-2.6,9.3-2.7,13.3-0.3v8.9c-4.5-2.3-10.1-2-14.3,0.9c-3.9,2.6-8.3,3.2-12.6,1.8L52.9,20.4z"/>
			<polygon class="st0" points="66.4,18.9 68.5,18.9 68.5,16.9 70.5,16.9 70.5,14.8 68.5,14.8 68.5,12.8 66.4,12.8 66.4,14.8 
				64.4,14.8 64.4,16.9 66.4,16.9 			"/>
			<path class="st0" d="M112.5,95.2c0.7-0.8,1.4-1.6,2-2.4c2.8-3.2,5.6-6.4,7.5-10.5c1.6-3.5,2.2-7,1.8-10.3
				c-0.8-5.8-4.6-10.6-9.6-12.8c0.9-1.4,1.2-3.1,1.1-4.8l0,0c-0.1-0.4-0.3-0.7-0.7-0.8s-0.8,0-1.1,0.2c-0.5,0.5-1.2,0.9-1.9,1.1
				c-0.7,0.2-1.5,0.1-2.2-0.1l-0.1,0c-2.2-0.8-4.5-1.3-6.9-1.3c-0.9,0-1.9,0.1-2.8,0.2c0,0,0-0.1,0-0.1c0-0.7-0.1-1.4-0.3-2.1
				c-0.1-0.3-0.3-0.5-0.6-0.6c-0.3-0.1-0.6-0.1-0.9,0.1c-0.4,0.2-0.9,0.4-1.3,0.4c-0.1,0-0.2,0-0.3,0c-0.6,0-1.1-0.1-1.5-0.1
				c-0.7,0-1.4,0-2.1,0.1c-0.7,0.1-1.4,0.2-2.1,0.4c-0.7,0.2-1.3,0.4-1.9,0.7c-0.6,0.3-1.2,0.6-1.8,1s-1.1,0.8-1.7,1.2
				s-1,0.9-1.5,1.4c-0.3,0.3-0.6,0.6-0.9,1c-0.3,0.3-0.5,0.7-0.7,1.1c-0.5,0.7-0.9,1.5-1.4,2.2c-0.1,0.1-0.1,0.1-0.2,0.2
				c0,0-0.1,0.1-0.1,0.1c0,0-0.1,0.1-0.1,0.1c0,0,0,0,0,0c0,0,0,0,0,0c-0.1,0.2-0.3,0.4-0.4,0.6c-0.2,0.2-0.3,0.4-0.5,0.6
				c-0.3,0.3-0.6,0.6-0.8,0.9c-0.1,0.1-0.2,0.2-0.3,0.3c-0.2,0.2-0.4,0.4-0.6,0.5c-0.1,0-0.1,0.1-0.2,0.1l-3.1-2.1l-0.5-3
				c0.2-0.3,0.4-0.6,0.6-1l0.1-0.2c0.1-0.2,0.2-0.4,0.3-0.5l0.1-0.1c0.1-0.2,0.1-0.3,0.2-0.5c0-0.1,0.1-0.1,0.1-0.2s0.1-0.1,0.1-0.2
				l0.9-0.2l0.7-5l0,0v0l-0.9-0.2c0-0.2,0-0.3-0.1-0.5c0-0.2-0.1-0.4-0.1-0.6c-0.1-0.6-0.4-1.2-0.6-1.7c0,0,0-0.1,0-0.1
				c-0.8-1.4-2-2.6-3.6-3.2c0,0-0.1,0-0.1,0c0,0,0-0.1,0.1-0.1c0-0.1,0.1-0.2,0.1-0.3c0.6-1.3,1.6-2.4,2.9-3.1
				c0.2,0.5,0.3,0.9,0.3,0.9c0.2,0.5,0.6,0.6,1,0.6c0.2,0,0.5-0.1,0.7-0.3c0.4-0.2,0.6-0.6,0.9-1c1.2-1.9,1.4-4.3,0.5-6.3
				c-0.7-1.7-2.2-2.7-3.9-2.8c-0.5,0-1.1,0-1.7,0.3c-0.7-1.6-2.5-2.8-4.4-2.8c-1.9,0-3.7,1.1-4.4,2.8c-0.6-0.2-1.2-0.3-1.7-0.3
				c-1.7,0.1-3.1,1.2-3.9,2.8c-0.9,2-0.7,4.5,0.5,6.3c0.2,0.4,0.5,0.7,0.9,1c0.2,0.1,0.5,0.2,0.7,0.3c0.4,0,0.8-0.1,1-0.6
				c0,0,0.1-0.4,0.3-0.9c1.3,0.7,2.3,1.8,2.9,3.1c0.1,0.1,0.1,0.2,0.1,0.3c0,0,0,0.1,0.1,0.1c0,0-0.1,0-0.1,0
				c-1.6,0.6-2.9,1.7-3.6,3.2c0,0,0,0.1,0,0.1c-0.3,0.5-0.5,1.1-0.6,1.7c-0.1,0.2-0.1,0.4-0.1,0.6c0,0.2,0,0.3-0.1,0.5l-0.9,0.2v0
				l0,0l0.7,5l0.9,0.2c0,0.1,0.1,0.1,0.1,0.2c0,0.1,0.1,0.1,0.1,0.2c0.1,0.2,0.1,0.3,0.2,0.5l0.1,0.1c0.1,0.2,0.2,0.4,0.3,0.5
				l0.1,0.2c0.2,0.3,0.4,0.7,0.6,1l-0.5,2.9l-3.1,2.1c-0.6-0.5-1.2-1-1.7-1.6c-0.1-0.1-0.2-0.2-0.3-0.3c-0.3-0.4-0.7-0.8-1-1.2
				c0,0,0,0-0.1-0.1c0,0-0.1-0.1-0.1-0.1c0,0-0.1-0.1-0.1-0.1c-0.1-0.1-0.1-0.1-0.2-0.2c-0.5-0.7-0.9-1.5-1.4-2.2
				c-0.2-0.4-0.5-0.7-0.7-1.1s-0.6-0.7-0.9-1c-0.5-0.5-1-1-1.5-1.4c-0.5-0.4-1.1-0.8-1.7-1.2c-0.6-0.4-1.2-0.7-1.8-1
				s-1.3-0.5-1.9-0.7c-0.7-0.2-1.4-0.3-2.1-0.4c-0.7-0.1-1.4-0.1-2.1-0.1c-0.4,0-0.9,0-1.5,0.1c-0.1,0-0.2,0-0.3,0
				c-0.5,0-0.9-0.1-1.3-0.4c-0.3-0.1-0.6-0.2-0.9-0.1s-0.5,0.3-0.6,0.6c-0.2,0.7-0.3,1.4-0.3,2.1c0,0.1,0,0.1,0,0.2
				c-1.1-0.2-2.1-0.3-3.2-0.3c-2.4,0-4.7,0.4-6.9,1.3l-0.1,0c-0.7,0.3-1.5,0.3-2.2,0.1c-0.7-0.2-1.4-0.5-1.9-1.1
				c-0.3-0.3-0.7-0.4-1.1-0.2c-0.4,0.1-0.6,0.5-0.7,0.8l0,0c-0.2,1.7,0.2,3.4,1.1,4.8c-5.1,2.1-8.9,6.9-9.7,12.8
				c-0.4,3.3,0.2,6.9,1.8,10.3c1.9,4,4.8,7.3,7.5,10.5c0.7,0.8,1.4,1.6,2,2.4c0.2,0.3,0.5,0.5,0.7,0.8c1.7,2,3.7,4.3,3.7,6.4
				c0,2.3-1.4,3.7-3.7,3.7c-0.5,0-1-0.1-1.4-0.2c-0.2-0.1-0.4-0.1-0.6-0.1v0c0,0-1.9-0.2-2.5,1.5c-0.2,0-0.4,0-0.6,0.1
				c-0.9,0.3-1.6,1.2-1.5,2.2l0,0.1c0.7,5.8,5.7,10.4,11.4,10.4h0.2c2.7,0,5.2-1,7.2-2.5c0,0,0,0,0.1,0.1c0.4,0.4,0.9,0.6,1.4,0.6
				c0.4,0,0.8-0.1,1.2-0.4c1.6-1.1,2.9-2.6,3.8-4.3l0,0c0.1-0.1,0.1-0.3,0.2-0.4c0.1,0.1,0.1,0.2,0.2,0.4c0.1,0.2,0.3,0.5,0.4,0.7
				c5.1,8,14.7,12.9,24.9,12.9c10.2,0,19.8-5,24.9-12.9c0.1-0.2,0.3-0.5,0.4-0.7c0.1-0.1,0.1-0.2,0.2-0.4c0.1,0.1,0.1,0.3,0.2,0.4
				l0,0c0.9,1.7,2.2,3.2,3.8,4.3c0.4,0.2,0.8,0.4,1.2,0.4c0.5,0,1.1-0.2,1.4-0.6c0,0,0,0,0.1-0.1c2,1.6,4.5,2.5,7.2,2.5h0.2
				c5.7,0,10.8-4.6,11.4-10.4l0-0.1c0.1-1-0.5-1.9-1.5-2.2c-0.2,0-0.4-0.1-0.6-0.1c-0.5-1.8-2.5-1.5-2.5-1.5v0c-0.2,0-0.4,0-0.6,0.1
				c-0.5,0.2-0.9,0.2-1.4,0.2c-2.3,0-3.7-1.4-3.7-3.7c0-2.2,2-4.4,3.7-6.4C112.1,95.8,112.3,95.5,112.5,95.2z M102.4,55.6
				c2.1,0,4.2,0.4,6.2,1.1l0.2,0.1c1.1,0.4,2.3,0.5,3.4,0.2c0.4-0.1,0.7-0.2,1.1-0.4c-0.2,0.7-0.5,1.4-0.9,2c0,0-2.6-0.5-4-0.5
				c-5.2,0-9.8,2.8-12.4,6.9c-0.2-0.9-1.1-1.5-2.2-1.5h-5.9C91,58.6,96.5,55.6,102.4,55.6z M104.5,80.5c0.1,0.2,0.1,0.3,0.2,0.5
				c0,0,1.4,3.9,5.8,3.8c0.1,0,0.1,0,0.2,0c0,0,0,0,0,0l0,0c-4.4,4.5-10.5,6.9-14.7,11.5V80.2c0.2-0.2,0.3-0.3,0.4-0.4
				c1.2-1.2,2.3-2.6,3.5-3.8c1.8-1.8,3.9-3.4,6.6-3.7c1.1-0.1,2.2-0.1,3.1,0.4c0.6,0.3,0.9,0.8,1.2,1.3c0,0,0.9,1.8-0.6,3.2
				c-0.1,0.1-0.2,0.1-0.3,0.2c-0.4,0.3-0.9,0.5-1.4,0.5c-0.3,0-0.7,0-1-0.1c-0.4-0.1-0.8-0.2-1.1-0.2c-0.6,0.1-1.2,0.4-1.5,0.8
				C104.9,78.3,104.1,79.2,104.5,80.5z M74.6,52.4l-0.2,1.8l0,0h0l0,0l-1,0.2l-0.9,0.2v-2.7c0.4,0.1,0.8,0.2,1.2,0.3
				C74,52.3,74.3,52.4,74.6,52.4z M67.5,57.7L67.5,57.7L67.5,57.7l5.2-1.1l0,0c-0.2,0.4-0.4,0.8-0.7,1.2c-0.2,0.3-0.4,0.5-0.6,0.8
				c-1,1.2-2.3,2.1-3.9,2.2c-1.6,0-2.9-1-3.9-2.2c-0.2-0.2-0.4-0.5-0.6-0.8c-0.3-0.4-0.5-0.8-0.7-1.2l0,0L67.5,57.7z M64.4,55v-3.6
				c0.8-0.2,1.5-0.4,2.1-0.5v4.5L64.4,55z M68.5,55.4V51c0.6,0.1,1.3,0.3,2.1,0.5V55L68.5,55.4z M61.8,39.2c0.4-0.6,0.9-1.1,1.5-1.4
				c0,0-1.9,0-3.9,1.9c-0.5-1.2-0.5-2.7,0-3.9c0.4-1,1.2-1.5,2.1-1.6c0.6,0,1.3,0.1,2.1,0.5c1.5,0.8,2.7,2.3,3.1,4
				c0,0,0.4-2.2-1.3-4.6c-0.2-0.2-0.3-0.4-0.5-0.6c0.3-1.1,1.5-1.9,2.7-1.9s2.4,0.8,2.7,1.9c-0.2,0.2-0.4,0.4-0.5,0.6
				c-1.7,2.3-1.3,4.6-1.3,4.6c0.4-1.7,1.5-3.2,3.1-4c0.7-0.4,1.4-0.6,2.1-0.5c0.9,0,1.7,0.6,2.1,1.6c0.5,1.2,0.5,2.7,0,3.9
				c-2-1.9-3.9-1.9-3.9-1.9c0.6,0.3,1.1,0.8,1.5,1.4c-1.7,0.9-3.1,2.3-3.8,4c-0.1,0.1-0.1,0.2-0.2,0.4c0,0.1-0.1,0.2-0.1,0.3
				c-0.6-0.2-1.1-0.5-1.6-0.8l0,0l0,0c-0.6,0.3-1.1,0.6-1.6,0.8c0-0.1-0.1-0.2-0.1-0.3c-0.1-0.1-0.1-0.2-0.2-0.4
				C64.8,41.5,63.4,40,61.8,39.2z M64.7,46.4c0.4-0.2,0.9-0.3,1.4-0.5c0.5-0.2,0.9-0.5,1.3-0.7c0.4,0.2,0.9,0.5,1.3,0.7
				c0.5,0.2,0.9,0.3,1.4,0.5c1.7,0.6,2.7,2,3.2,3.7c-5.4-1.3-5.8-1.4-5.9-1.4l0,0l0,0c0,0,0,0,0,0l0,0l0,0c-0.1,0-0.5,0.1-5.9,1.4
				C62,48.4,63.1,47,64.7,46.4z M60.5,54.2L60.5,54.2L60.5,54.2L60.5,54.2l-0.2-1.8c0.3-0.1,0.6-0.1,0.9-0.2
				c0.4-0.1,0.8-0.2,1.2-0.3v2.7l-0.9-0.2L60.5,54.2z M62.8,62.8l0.3-1.7c0.1,0,0.1,0.1,0.1,0.1c1.2,1.1,2.6,1.8,4.2,1.8l0,0l0,0
				c1.6,0,3.1-0.7,4.2-1.8c0,0,0.1-0.1,0.1-0.1l0.3,1.8l3.4,2.3c-0.2,0.1-0.3,0.2-0.5,0.3c-1.4,0.8-3,1.4-4.6,1.8
				c-1,0.2-2,0.4-3,0.4c-0.9,0-1.7-0.2-2.6-0.3c-1.7-0.4-3.3-1-4.7-1.8c-0.2-0.1-0.5-0.3-0.7-0.4L62.8,62.8z M22.4,57
				c1.1,0.3,2.3,0.2,3.4-0.2l0.2-0.1c2-0.8,4.1-1.1,6.2-1.1c5.9,0,11.4,3,14.6,7.9h-5.9c-1.1,0-1.9,0.7-2.2,1.5
				c-2.6-4.1-7.1-6.9-12.4-6.9c-1.4,0-4,0.5-4,0.5c-0.4-0.6-0.8-1.3-0.9-2C21.7,56.8,22.1,56.9,22.4,57z M41,108.3
				c0,0.2,0,0.3-0.1,0.5c0,0,0,0.1,0,0.1c0,0.2-0.1,0.3-0.1,0.5c0,0,0,0,0,0c-0.1,0.8-0.4,1.5-0.7,2.2c0,0,0,0.1,0,0.1
				c-0.1,0.1-0.1,0.3-0.2,0.4c0,0.1-0.1,0.2-0.1,0.3c-0.8,1.5-1.9,2.8-3.3,3.8c1.3-1.8,2-3.9,2-6.3c0-1-0.1-2-0.4-3l0,0
				c-0.2,2.3-0.9,4.4-1.9,6.3l0,0c-1.6,2.9-4.8,4.8-8.4,4.9c0,0-0.1,0-0.1,0c-4.6,0-8.9-3.8-9.4-8.6v0l0,0c0,0,0,0,0.1,0.1
				c1.3,2,3.5,3.2,6,3.2c3.8,0,6.9-3,7.1-6.7c-0.5,1.5-1.7,2.8-3.1,3.6c0,0,0,0-0.1,0c-0.4,0.2-0.8,0.4-1.2,0.5
				c-1.8,0.6-5.1,1.1-7-2.6c0.1,0,0.3,0.1,0.4,0.2c0.3,0.1,0.6,0.2,1,0.3c0.4,0.1,0.7,0.1,1.1,0.1c0.3,0,0.7,0,1,0
				c0.2,0,0.3,0,0.5,0c0.1,0,0.2,0,0.4-0.1c0.5-0.1,1-0.3,1.4-0.5c0.4-0.2,0.8-0.5,1.2-0.9c0.4-0.3,0.6-0.7,0.9-1.2
				c0.2-0.5,0.4-0.9,0.6-1.4c0.1-0.5,0.2-1.1,0.2-1.6c0-3.3-2.9-6.2-4.9-8.6c-3.3-3.9-7.1-7.7-9.3-12.4c-1.3-2.8-2-6.1-1.6-9.2
				c0.9-6.8,6.6-12.2,13.6-12.2c4.7,0,8.7,2.6,10.9,6.4c0.2,0.4,1.4,2.8,1.4,4.7v5.7c0,0,0,0,0,0c-1.5-1.6-2.9-3.3-4.7-4.6
				c-2.7-1.9-6.7-3.3-9.8-1.6c-2.7,1.5-3.5,5-1.8,7.5c0,0,1.7,2.7,5.4,1.7c0,0-1.1,3.6-5.4,2c-0.3-0.1-0.6-0.3-0.9-0.5
				c-0.5-0.4-1-0.8-1.4-1.3c-0.2-0.2-0.4-0.5-0.6-0.8c-0.3-0.4-0.5-0.8-0.7-1.2c-0.2-0.5-0.4-1-0.5-1.6c-0.3-1.7-0.1-3.4,0.7-4.9
				c1.1-2.3,3.4-4.1,5.9-4.8c2.6-0.7,5.9-0.3,8.2,1c0.4,0.2,0.7,0.4,1,0.7c0.3,0.2,0.5,0.4,0.8,0.7c-1.3-2.8-4.8-4.3-7.7-4.4
				c-3.3-0.2-6.6,1.4-8.7,4c-1.9,2.4-2.6,5.6-2.1,8.7c0.6,3.3,3.2,6.1,5.4,8.6c3.8,4.5,7.6,8.9,10.4,14.1c1.1,2,1.6,4.1,1.6,6.4
				c0,4.6-3.6,8.3-8.1,8.5h0c0.5,0.1,1,0.1,1.5,0.1c1.1,0,2.3-0.2,3.3-0.6c1.9-0.8,3.4-2.2,4.4-3.9c3.8-7.1-2.2-14.4-6.4-19.6
				c-0.3-0.3-1.6-1.9-2.2-2.6l4.9,3.5c1,0.7,2,1.5,3,2.2c1.4,1.2,2.8,2.4,3.9,3.9C39.6,100.8,41.3,104.5,41,108.3z M23.8,84.7
				C23.8,84.7,23.8,84.7,23.8,84.7c0.1,0,0.2,0,0.2,0c4.4,0.1,5.8-3.8,5.8-3.8c0.1-0.2,0.1-0.3,0.2-0.5c0.4-1.2-0.4-2.1-0.4-2.1
				c-0.4-0.5-0.9-0.8-1.5-0.8c-0.4,0-0.8,0-1.1,0.2c-0.3,0.1-0.7,0.1-1,0.1c-0.5,0-1-0.2-1.4-0.5c-0.1-0.1-0.2-0.1-0.3-0.2
				c-1.4-1.4-0.6-3.2-0.6-3.2c0.2-0.5,0.6-1,1.2-1.3c0.9-0.5,2-0.5,3.1-0.4c2.6,0.4,4.7,1.9,6.6,3.7c1.2,1.2,2.3,2.6,3.5,3.8
				c0.1,0.1,0.3,0.2,0.4,0.4v16.1C34.3,91.6,28.2,89.2,23.8,84.7L23.8,84.7z M91.5,108.4c0,0,0,0.1,0,0.1c0.1,0.6,0.1,1.2,0.3,1.8v0
				c-0.4,0.8-0.7,1.5-1.2,2.2c-0.1,0.2-0.3,0.4-0.4,0.6c-4.6,7.1-13.1,11.9-23,11.9c-9.8,0-18.4-4.8-23-11.9
				c-0.1-0.2-0.3-0.4-0.4-0.6c-0.4-0.7-0.8-1.5-1.2-2.2c0,0,0,0,0,0c0.1-0.6,0.2-1.2,0.3-1.8c0,0,0-0.1,0-0.1c0.2-3-0.6-6.2-2.3-9.1
				l0,0V65.5h9.5c-1.2-2,0,0-1.2-2h0c0,0,0,0.1,0.1,0.1c-2.5-4.6-6.8-8-11.7-9.3c0-0.2-0.1-0.4-0.1-0.7c0-0.1,0-0.2,0-0.4
				c0.5,0.1,1.1,0.2,1.6,0.1c0.5,0,0.9-0.1,1.3-0.1c0.1,0,0.2,0,0.3,0c0.7,0,1.4,0.1,2.1,0.2c0.7,0.1,1.4,0.3,2,0.5
				c0.6,0.2,1.3,0.5,1.9,0.9c0.6,0.3,1.2,0.7,1.7,1.1c0.5,0.4,1.1,0.9,1.5,1.4c0.5,0.5,0.9,1.1,1.4,1.7c0.5,0.7,0.9,1.5,1.4,2.2
				c0.5,0.7,1,1.4,1.6,2c0.4,0.5,0.8,0.9,1.2,1.3c0.2,0.2,0.4,0.4,0.6,0.6c0,0,0,0,0.1,0.1c0.2,0.2,0.4,0.4,0.6,0.5
				c0,0,0.1,0,0.1,0.1c0.2,0.2,0.4,0.3,0.6,0.5c0,0,0.1,0,0.1,0.1c0.2,0.2,0.4,0.3,0.7,0.5c0,0,0,0,0.1,0c1,0.6,2,1.1,3,1.5
				c0.1,0,0.1,0,0.1,0.1c0.2,0.1,0.4,0.1,0.6,0.2c0.5,0.2,0.9,0.3,1.4,0.5c1.3,0.4,2.6,0.5,3.9,0.6c1.3,0,2.6-0.2,3.9-0.6
				c0.5-0.1,1-0.3,1.4-0.5c0.2-0.1,0.4-0.1,0.6-0.2c0.1,0,0.1,0,0.1-0.1c1-0.4,2-0.9,3-1.5c0,0,0,0,0.1,0c0.2-0.1,0.4-0.3,0.7-0.5
				c0,0,0.1,0,0.1-0.1c0.2-0.1,0.4-0.3,0.6-0.5c0,0,0.1,0,0.1-0.1c0.1,0,0.1-0.1,0.2-0.2h0c0.1,0,0.1-0.1,0.2-0.1
				c0.1-0.1,0.2-0.1,0.3-0.2c0,0,0,0,0.1-0.1c0.2-0.2,0.4-0.3,0.6-0.5c0,0,0.1-0.1,0.1-0.1l0,0c0.4-0.4,0.9-0.8,1.2-1.3
				c0.3-0.3,0.5-0.6,0.8-0.9c0.1-0.1,0.1-0.1,0.1-0.2c0.2-0.3,0.4-0.5,0.6-0.8c0,0,0,0,0.1-0.1s0-0.1,0.1-0.1
				c0.1-0.2,0.3-0.4,0.4-0.6c0.3-0.5,0.6-1,0.9-1.5c0.4-0.6,0.9-1.1,1.4-1.7c0.5-0.5,1-1,1.5-1.4c0.5-0.4,1.1-0.8,1.7-1.1
				c0.6-0.3,1.2-0.6,1.9-0.9c0.7-0.2,1.3-0.4,2-0.5c0.7-0.1,1.4-0.2,2.1-0.2c0.1,0,0.2,0,0.3,0c0.4,0,0.8,0,1.3,0.1
				c0.5,0.1,1.1,0,1.6-0.1c0,0.1,0,0.2,0,0.4c0,0.2,0,0.4,0,0.6c-5.1,1.3-9.5,4.7-12.1,9.5c0,0,0-0.1,0.1-0.1h0c-1.2,2,0,0-1.2,2
				h9.5v33.8l0,0C92.1,102.2,91.3,105.4,91.5,108.4z M106.1,102.5c0,0.5,0.1,1.1,0.2,1.6c0.1,0.5,0.3,1,0.6,1.4
				c0.2,0.4,0.5,0.8,0.9,1.2s0.8,0.6,1.2,0.9c0.4,0.2,0.9,0.4,1.4,0.5c0.1,0,0.2,0.1,0.4,0.1c0.2,0,0.3,0,0.5,0c0.3,0,0.7,0,1,0
				c0.4,0,0.7,0,1.1-0.1c0.3-0.1,0.6-0.2,1-0.3c0.1-0.1,0.3-0.1,0.4-0.2c-1.9,3.7-5.2,3.2-7,2.6c-0.4-0.1-0.9-0.3-1.2-0.5
				c-0.1,0-0.1,0-0.1,0c-1.4-0.8-2.6-2.1-3.1-3.6c0.2,3.7,3.3,6.7,7.1,6.7c2.5,0,4.7-1.3,6-3.2c0,0,0,0,0.1-0.1l0,0v0
				c-0.6,4.8-4.8,8.6-9.4,8.6c0,0-0.1,0-0.1,0c-3.6,0-6.7-2-8.4-4.9l0,0c-1.1-1.9-1.8-4-1.9-6.3l0,0c-0.3,1-0.4,2-0.4,3
				c0,2.4,0.8,4.5,2,6.3c-1.4-1-2.5-2.3-3.3-3.8c-0.1-0.1-0.1-0.2-0.1-0.3c-0.1-0.1-0.1-0.3-0.2-0.4c0,0,0-0.1,0-0.1
				c-0.3-0.7-0.5-1.5-0.7-2.2c0,0,0,0,0,0c0-0.2-0.1-0.3-0.1-0.5c0,0,0-0.1,0-0.1c0-0.2,0-0.3-0.1-0.5c-0.3-3.8,1.4-7.6,3.4-10
				c1.2-1.4,2.5-2.7,3.9-3.9c1-0.8,2-1.5,3-2.2l4.9-3.5c-0.6,0.7-1.9,2.2-2.2,2.6c-4.2,5.2-10.3,12.5-6.4,19.6
				c0.9,1.8,2.5,3.2,4.4,3.9c1.1,0.4,2.2,0.6,3.3,0.6c0.5,0,1,0,1.5-0.1h0c-4.5-0.2-8.1-3.9-8.1-8.5c0-2.4,0.5-4.4,1.6-6.4
				c2.8-5.2,6.6-9.6,10.4-14.1c2.1-2.5,4.8-5.3,5.4-8.6c0.5-3-0.2-6.2-2.1-8.7c-2.1-2.6-5.4-4.2-8.7-4c-2.9,0.1-6.4,1.6-7.7,4.4
				c0.3-0.3,0.5-0.5,0.8-0.7c0.3-0.2,0.7-0.5,1-0.7c2.3-1.3,5.6-1.7,8.2-1c2.4,0.7,4.7,2.6,5.9,4.8c0.8,1.6,0.9,3.2,0.7,4.9
				c-0.1,0.5-0.3,1.1-0.5,1.6c-0.2,0.4-0.4,0.8-0.7,1.2c-0.2,0.3-0.4,0.5-0.6,0.8c-0.4,0.5-0.9,0.9-1.4,1.3
				c-0.3,0.2-0.6,0.3-0.9,0.5c-4.3,1.6-5.4-2-5.4-2c3.6,1,5.4-1.7,5.4-1.7c1.7-2.5,0.9-6-1.8-7.5c-3.1-1.8-7.1-0.4-9.8,1.6
				c-1.8,1.3-3.2,2.9-4.7,4.6c0,0,0,0,0,0v-5.7c0-1.9,1.2-4.3,1.4-4.7c2.1-3.8,6.2-6.4,10.9-6.4c7,0,12.6,5.4,13.6,12.2
				c0.4,3.1-0.3,6.4-1.6,9.2c-2.2,4.7-6,8.4-9.3,12.4C109,96.3,106.1,99.2,106.1,102.5z"/>
		</g>
		<g>
			<path class="st0" d="M71,100.6v-0.3c0-0.5-0.4-0.9-0.9-0.9v0.2v2.6l3.4-1.1c0.1,0.6,0.5,1.5,1,1.9c0.4,0.3,0.8,0.9,0.9,1.4
				c-0.9,0.4-2.4,1-2.5,1.1c-0.1,0.4-0.2,0.8-0.2,1.2s0.1,0.8,0.2,1.2c-0.7-0.1-1.3-0.4-1.8-0.8c0,0,0-0.9,0-0.9
				c0-0.5-0.4-0.9-0.9-0.9v2.9c0,0,0,0,0,0c0.8,0.6,1.8,1,2.9,1c0.5,0,0.9,0.4,0.9,0.9c0.1,0,0.3-0.1,0.3-0.2c0-0.2,0-0.5-0.1-0.7
				c-0.1-0.2-0.1-0.5-0.1-0.7c0-0.4,0.1-0.8,0.3-1.2c0.1,0,0.3-0.1,0.4-0.1c0.2,0,0.4-0.1,0.7-0.1c0.3,0,0.7,0,1,0.1
				c0.2,0,0.4,0.1,0.6,0.1c0.1,0,0.2,0,0.3,0c0.4,0,0.8-0.1,1.1-0.2c0,0,0.1,0,0.2,0.1c0,0.1-0.1,0.2-0.1,0.2
				c-0.2,0.2-0.6,0.4-1.1,0.5c-0.2,0-0.4,0-0.5,0c0.4,0.9,0.7,1.6,0.7,1.7c0.4,0.1,0.8,0.2,1.2,0.2s0.8-0.1,1.2-0.2
				c-0.1,0.7-0.4,1.3-0.8,1.8c0,0-0.9,0-0.9,0c-0.5,0-0.9,0.4-0.9,0.9h2.9c0,0,0,0,0,0c0.6-0.8,0.9-1.8,1-2.9c0-0.5,0.4-0.9,0.9-0.9
				c0-0.1-0.1-0.3-0.2-0.3c-0.2,0-0.5,0-0.7,0.1c-0.2,0.1-0.5,0.1-0.7,0.1c-0.4,0-0.8-0.1-1.2-0.3c-0.1-0.4-0.2-0.7-0.2-1.1
				c0-0.3,0.1-0.7,0.1-1l0,0c0,0,0-0.1,0-0.1c0.2,0.1,0.5,0.1,0.7,0.1c1.6,0,3-1.3,3-3c0-0.5-0.1-0.9-0.3-1.3l-0.3-0.5
				c-0.4-0.8-0.6-1.7-0.6-2.7c0.1-0.9,0.3-1.7,0.8-2.4h0c0,0,0.1,0,0.1,0c0.2-0.1,0.4-0.2,0.5-0.3c0.3-0.3,0.6-0.7,0.6-1.2
				c0,0,0-0.1,0-0.1c0,0,0-0.1,0-0.1c0-0.1,0-0.2,0-0.3c-0.1,0-0.1,0.1-0.2,0.1c-0.1,0.1-0.2,0.1-0.3,0.2c-0.1,0.1-0.2,0.2-0.3,0.3
				c-0.1,0.1-0.2,0.2-0.3,0.3s-0.2,0.2-0.3,0.3c0,0,0,0,0,0c0,0-0.1,0.1-0.1,0.1l0,0c0,0,0,0,0,0c0,0,0,0-0.1,0.1
				c0,0-0.1,0.1-0.1,0.1c0,0,0,0,0,0c-0.6,0.8-0.9,1.8-1,2.8c-0.1,1,0.1,2.1,0.6,3l0.2,0.5c0.2,0.3,0.2,0.7,0.2,1
				c0,1.3-1.1,2.3-2.3,2.3c0,0-0.1,0-0.1,0c-0.6,0-1.2-0.3-1.6-0.8c-0.1-0.1-0.1-0.2-0.2-0.3c-0.4-0.6-0.7-1.4-0.7-2.2l0,0v0
				c0.3,0.3,0.7,0.5,0.9,0.6c0.1,0,0.1,0,0.1-0.1c-0.2-0.4-0.2-1.1-0.1-1.5c0.1-0.3,0.1-0.5,0.3-0.8c0,0,0,0.2,0.2,0.5
				c0,0,0.1,0,0.1,0c0.1-0.5,0.2-0.9,0.4-1.3c0.1-0.2,0.1-0.2,0.1-0.2c0.1-0.1,0.1-0.3,0.2-0.4c0.1-0.1,0.2-0.3,0.2-0.4l0,0
				c0,0,0,0,0,0c0,0,0,0,0,0c0,0,0,0,0,0c0,0,0,0,0,0c0,0,0,0,0,0c0,0,0,0,0,0c0,0,0,0,0,0c0,0,0,0,0,0c0,0,0,0,0,0c0,0,0,0,0,0
				c0,0,0,0,0,0c0,0,0,0,0,0c0,0,0,0,0,0c0,0,0,0,0-0.1c0,0,0,0,0,0s0,0,0-0.1s0,0,0,0s0,0,0-0.1s0,0,0,0s0,0,0-0.1s0,0,0,0
				s0,0,0-0.1s0,0,0,0s0,0,0-0.1s0,0,0,0c0,0,0,0,0-0.1c0,0,0,0,0,0s0,0,0-0.1c0,0,0,0,0,0c0,0,0,0,0-0.1c0,0,0,0,0,0
				c0,0,0-0.1,0-0.1c0-1.2-0.6-2.3-1.5-3c0.1,0,0.1,0,0.2,0c0.1,0,0.1-0.1,0.1-0.1c-0.8-0.6-1.8-0.9-2.8-0.8c-0.1,0-0.1,0-0.2,0
				s-0.1,0.1-0.1,0.1l-0.1,0.4c-0.1,0-0.1,0-0.1,0c-0.3,0.1-0.6,0.2-0.8,0.5l-1.1,0.4c-0.1,0-0.1,0.1-0.1,0.2c0,0.1,0,0.1,0.1,0.1
				c0,0.2,0.1,0.8,0.4,0.9c0,0,0.2-0.1,0.3-0.1l0,0l0,0c0,0,0,0,0.1,0l0,0c0.3-0.1,0.7-0.1,0.8,0c0,0,0.2,0.5-0.1,0.6
				c0,0-0.1,0-0.4,0.1l-0.3,0c-0.1,0-0.1,0-0.2,0c0,0-0.2,0.5,0.1,0.6c0.2-0.1,0.5-0.1,0.8-0.1c0.1,0,0.3,0,0.3,0c0.1,0,0.1,0,0.2,0
				c0.3,0,0.8-0.1,1.1-0.3c0,0-0.2,0.3-0.8,0.6c0,0-0.3,0.1-0.5,0.1c-0.1,0-0.2,0-0.2,0.1c-0.5,0.2-1,0.5-1.3,1
				c-0.2-0.1-3.3-1.5-3.3-1.5l0.1,0v-0.6c0-0.4-0.2-0.7-0.6-0.9c-0.1-0.1-0.2-0.1-0.4-0.1v0v2.2l2.8,2l1.1-0.3c0,0,0.1-0.1,0.2,0.1
				c0.1,0.1-0.1,0.2-0.1,0.2L71,100.6z"/>
			<path class="st0" d="M57,109.4c-0.4,0.1-0.8,0.2-1.2,0.2s-0.8-0.1-1.2-0.2c0.1,0.7,0.4,1.3,0.8,1.8c0,0,0.9,0,0.9,0
				c0.5,0,0.9,0.4,0.9,0.9h-2.9c0,0,0,0,0,0c-0.6-0.8-0.9-1.8-1-2.9c0-0.5-0.4-0.9-0.9-0.9c0-0.1,0.1-0.3,0.2-0.3
				c0.2,0,0.5,0,0.7,0.1c0.2,0.1,0.5,0.1,0.7,0.1c0.4,0,0.8-0.1,1.2-0.3c0.1-0.4,0.2-0.7,0.2-1.1c0-0.3-0.1-0.7-0.1-1l0,0
				c0,0,0-0.1,0-0.1c-0.2,0.1-0.5,0.1-0.7,0.1c-1.6,0-3-1.3-3-3c0-0.5,0.1-0.9,0.3-1.3l0.3-0.5c0.4-0.8,0.6-1.7,0.6-2.7
				c-0.1-0.9-0.3-1.7-0.8-2.4h0c0,0-0.1,0-0.1,0c-0.2-0.1-0.4-0.2-0.5-0.3c-0.3-0.3-0.6-0.7-0.6-1.2c0,0,0-0.1,0-0.1
				c0,0,0-0.1,0-0.1c0-0.1,0-0.2,0-0.3c0.1,0,0.1,0.1,0.2,0.1c0.1,0.1,0.2,0.1,0.3,0.2c0.1,0.1,0.2,0.2,0.3,0.3
				c0.1,0.1,0.2,0.2,0.3,0.3s0.2,0.2,0.3,0.3c0,0,0,0,0,0c0,0,0.1,0.1,0.1,0.1l0,0c0,0,0,0,0,0c0,0,0,0,0.1,0.1c0,0,0.1,0.1,0.1,0.1
				c0,0,0,0,0,0c0.6,0.8,0.9,1.8,1,2.8c0.1,1-0.1,2.1-0.6,3l-0.2,0.5c-0.2,0.3-0.2,0.7-0.2,1c0,1.3,1.1,2.3,2.3,2.3c0,0,0.1,0,0.1,0
				c0.6,0,1.2-0.3,1.6-0.8c0.1-0.1,0.1-0.2,0.2-0.3c0.4-0.6,0.7-1.4,0.7-2.2l0,0v0c-0.3,0.3-0.7,0.5-0.9,0.6c-0.1,0-0.1,0-0.1-0.1
				c0.2-0.4,0.2-1.1,0.1-1.5c-0.1-0.3-0.1-0.5-0.3-0.8c0,0,0,0.2-0.2,0.5c0,0-0.1,0-0.1,0c-0.1-0.5-0.2-0.9-0.4-1.3
				c-0.1-0.2-0.1-0.2-0.1-0.2c-0.1-0.1-0.1-0.3-0.2-0.4c-0.1-0.1-0.2-0.3-0.2-0.4l0,0c0,0,0,0,0,0c0,0,0,0,0,0c0,0,0,0,0,0
				c0,0,0,0,0,0c0,0,0,0,0,0c0,0,0,0,0,0c0,0,0,0,0,0c0,0,0,0,0,0c0,0,0,0,0,0c0,0,0,0,0,0c0,0,0,0,0,0c0,0,0,0,0,0c0,0,0,0,0,0
				c0,0,0,0,0-0.1c0,0,0,0,0,0s0,0,0-0.1s0,0,0,0s0,0,0-0.1s0,0,0,0s0,0,0-0.1s0,0,0,0s0,0,0-0.1s0,0,0,0s0,0,0-0.1s0,0,0,0
				c0,0,0,0,0-0.1c0,0,0,0,0,0s0,0,0-0.1c0,0,0,0,0,0c0,0,0,0,0-0.1c0,0,0,0,0,0c0,0,0-0.1,0-0.1c0-1.2,0.6-2.3,1.5-3
				c-0.1,0-0.1,0-0.2,0c-0.1,0-0.1-0.1-0.1-0.1c0.8-0.6,1.8-0.9,2.8-0.8c0.1,0,0.1,0,0.2,0s0.1,0.1,0.1,0.1l0.1,0.4
				c0.1,0,0.1,0,0.1,0c0.3,0.1,0.6,0.2,0.8,0.5l1.1,0.4c0.1,0,0.1,0.1,0.1,0.2c0,0.1,0,0.1-0.1,0.1c0,0.2-0.1,0.8-0.4,0.9
				c0,0-0.2-0.1-0.3-0.1l0,0l0,0c0,0,0,0-0.1,0l0,0c-0.3-0.1-0.7-0.1-0.8,0c0,0-0.2,0.5,0.1,0.6c0,0,0.1,0,0.4,0.1l0.3,0
				c0.1,0,0.1,0,0.2,0c0,0,0.2,0.5-0.1,0.6c-0.2-0.1-0.5-0.1-0.8-0.1c-0.1,0-0.3,0-0.3,0c-0.1,0-0.1,0-0.2,0c-0.3,0-0.8-0.1-1.1-0.3
				c0,0,0.2,0.3,0.8,0.6c0,0,0.3,0.1,0.5,0.1c0.1,0,0.2,0,0.2,0.1c0.5,0.2,1,0.5,1.3,1c0.2-0.1,3.3-1.5,3.3-1.5l-0.1,0v-0.6
				c0-0.4,0.2-0.7,0.6-0.9c0.1-0.1,0.2-0.1,0.4-0.1v0v2.2l-2.7,2l-1.2-0.3c0,0-0.1-0.1-0.2,0.1C60.3,99,60.5,99,60.5,99l3.1,1.6
				v-0.3c0-0.5,0.4-0.9,0.9-0.9v0.2v2.6l-3.4-1.1c-0.1,0.6-0.5,1.5-1,1.9c-0.4,0.3-0.8,0.9-0.9,1.4c0.9,0.4,2.4,1,2.5,1.1
				c0.1,0.4,0.2,0.8,0.2,1.2s-0.1,0.8-0.2,1.2c0.7-0.1,1.3-0.4,1.8-0.8c0,0,0-0.9,0-0.9c0-0.5,0.4-0.9,0.9-0.9v2.9c0,0,0,0,0,0
				c-0.8,0.6-1.8,1-2.9,1c-0.5,0-0.9,0.4-0.9,0.9c-0.1,0-0.3-0.1-0.3-0.2c0-0.2,0-0.5,0.1-0.7c0.1-0.2,0.1-0.5,0.1-0.7
				c0-0.4-0.1-0.8-0.3-1.2c-0.1,0-0.3-0.1-0.4-0.1c-0.2,0-0.4-0.1-0.7-0.1c-0.1,0-0.3,0-0.4,0l0.2-1.4c0,0,0-0.1-0.1-0.2
				c-0.1,0-0.2,0.1-0.2,0.1L57,109.4z"/>
		</g>
		<path class="st0" d="M77,77.1c-1.2-2.2-3.5-3.8-6.2-3.9c-1-0.5-2.1-0.8-3.4-0.8S65,72.7,64,73.2c-2.7,0.1-5,1.6-6.2,3.9
			c-1.8,1-3.1,2.9-3.1,5c0,1.7,0.8,3.3,2,4.3c0.9,2.3,3,4,5.4,4.4c2.2,0.4,3.9,2.2,3.9,4.5l0,12.4c0,0.5-0.4,3-3.3,3.5
			c-0.3,0-0.7,0-0.7,0c-0.5,0-1,0.4-1,1h3h1.4h0.6h2.5l0,0h2h3c0-0.5-0.4-1-1-1c0,0-0.5,0-0.7,0c-3.2-0.4-3.3-3.3-3.3-3.5V95.3
			c0-2.2,1.6-4,3.6-4.5l0.2,0c2.6-0.4,4.7-2.1,5.6-4.4c1.2-1,2-2.6,2-4.3C80,79.9,78.8,78,77,77.1z M76.8,85l-0.4,0.3l-0.2,0.4
			c-0.6,1.5-1.8,2.6-3.3,3v0c0,0-1.2,0.3-1.6,0.5l0,0c-0.1,0.1-0.2,0.2-0.3,0.3c0,0,0,0,0,0c-0.1,0.1-0.2,0.1-0.3,0.2
			c-0.1,0.1-0.2,0.2-0.3,0.2c-0.9,0.6-2,0.9-3,0.9s-2.1-0.3-3-0.9c-0.1-0.1-0.2-0.1-0.3-0.2c-0.1-0.1-0.2-0.1-0.3-0.2c0,0,0,0,0,0
			c-0.1-0.1-0.2-0.2-0.3-0.3l0,0c-0.3-0.2-1.6-0.5-1.6-0.5v0c-1.5-0.4-2.7-1.5-3.3-3l-0.2-0.4L58,85c-0.8-0.7-1.3-1.8-1.3-2.9
			c0-1.4,0.8-2.7,2-3.3l0.5-0.3l0.3-0.5c0.9-1.7,2.6-2.8,4.6-2.9l0.4,0l0.4-0.2c0.8-0.4,1.6-0.6,2.4-0.6c0.9,0,1.7,0.2,2.4,0.6
			l0.4,0.2l0.4,0c1.9,0.1,3.7,1.2,4.6,2.9l0.3,0.5l0.5,0.3c1.2,0.6,2,1.9,2,3.3C78.1,83.2,77.6,84.3,76.8,85z"/>
	</g>
	<path class="st0" d="M79.5,69.7c-1.4,0.8-2.8,1.4-4.2,1.8h12.5v27.2c0,1.6-0.2,3.1-0.5,4.7c-0.4,1.7-1,3.4-1.9,5
		c-0.1,0.2-0.2,0.4-0.3,0.5c-3.6,6.3-10.4,10.2-17.7,10.2s-14-3.9-17.7-10.2c-0.1-0.2-0.2-0.4-0.3-0.5c-0.9-1.6-1.5-3.2-1.9-5
		c-0.4-1.5-0.5-3.1-0.5-4.7V71.5h12.8c-1.9-0.5-3.4-1.2-4.3-1.8H45.2v29c0,1.8,0.2,3.5,0.6,5.1c0.4,1.9,1.1,3.7,2.1,5.4
		c0.1,0.2,0.2,0.4,0.3,0.6c3.8,6.6,11,11.1,19.2,11.1c8.2,0,15.4-4.5,19.2-11.1c0.1-0.2,0.2-0.4,0.3-0.6c0.9-1.7,1.6-3.5,2.1-5.4
		c0.4-1.6,0.6-3.3,0.6-5.1v-29H79.5z"/>
	<polygon class="st0" points="93,70.2 92.5,69.7 91.7,70.6 90.8,69.7 90.4,70.2 91.2,71 90.4,71.9 90.8,72.3 91.7,71.5 92.5,72.3 
		93,71.9 92.1,71 	"/>
	<polygon class="st0" points="44.3,70.2 43.9,69.7 43,70.6 42.1,69.7 41.7,70.2 42.5,71 41.7,71.9 42.1,72.3 43,71.5 43.9,72.3 
		44.3,71.9 43.4,71 	"/>
	<polygon class="st0" points="93,91 92.5,90.6 91.7,91.4 90.8,90.6 90.4,91 91.2,91.9 90.4,92.7 90.8,93.2 91.7,92.3 92.5,93.2 
		93,92.7 92.1,91.9 	"/>
	<polygon class="st0" points="44.3,91 43.9,90.6 43,91.4 42.1,90.6 41.7,91 42.5,91.9 41.7,92.7 42.1,93.2 43,92.3 43.9,93.2 
		44.3,92.7 43.4,91.9 	"/>
	<polygon class="st0" points="49.2,112.7 48.7,112.2 47.9,113.1 47,112.2 46.6,112.7 47.4,113.5 46.6,114.4 47,114.8 47.9,114 
		48.7,114.8 49.2,114.4 48.3,113.5 	"/>
	<polygon class="st0" points="88.2,112.7 87.8,112.2 86.9,113.1 86.1,112.2 85.6,112.7 86.5,113.5 85.6,114.4 86.1,114.8 86.9,114 
		87.8,114.8 88.2,114.4 87.4,113.5 	"/>
	<polygon class="st0" points="68.7,122.2 68.2,121.7 67.4,122.6 66.5,121.7 66.1,122.2 66.9,123 66.1,123.9 66.5,124.3 67.4,123.5 
		68.2,124.3 68.7,123.9 67.8,123 	"/>
</g>
</svg>
