<svg xmlns="http://www.w3.org/2000/svg" viewBox="0 0 263.9 77.27"><defs><style>.cls-1{fill:#2c2d72;}.cls-2{fill:#27a739;}</style></defs><g id="Layer_2" data-name="Layer 2"><g id="Layer_1-2" data-name="Layer 1"><path class="cls-1" d="M109.36,46.63V35.81h-12V66.86c0,1.31-2.45,2.34-4.3,2.34s-3.87-1-3.87-2.34V64.25a.17.17,0,0,0,0-.07v-.06c0-3.56-3.22-6.43-7.14-6.43H78.3v6.8a9.55,9.55,0,0,0,2,5.85c2.63,3.46,7.71,5.45,12.8,5.45,7.51,0,16.3-4.32,16.3-11.3Z"/><path class="cls-1" d="M251.87,57.73l-3.37-4.68L254.41,45l3.47-4.82L261,35.81h-8.3a5.54,5.54,0,0,0-4.65,2.66L243,45.35l-4.13-5.76A9.72,9.72,0,0,0,231,35.81h-9.27l2.12,3,9.89,13.8,2,2.76-7.19,10-3.45,4.82L222,74.48h8.3a5.32,5.32,0,0,0,4.25-2l.06-.08L241.32,63l5.25,7.28a9.66,9.66,0,0,0,8.09,4.18h9.24l-2.12-3Z"/><path class="cls-1" d="M194.56,73.66,191.43,57.4,188.66,43,188,39.52l-.71-3.7h-5.83a7.13,7.13,0,0,0-6.63,4.32h0l-.07.18a.32.32,0,0,1,0,.09L170,53a.68.68,0,0,1-.65.44.69.69,0,0,1-.66-.43l-5.27-12.87h0a7.15,7.15,0,0,0-6.62-4.29h-5.61l-.6,3.15-.89,4.61-4.16,21.63-1.62,8.45-.16.82h3.1a5.07,5.07,0,0,0,5.09-4l3.33-17.31a.74.74,0,0,1,.75-.58.77.77,0,0,1,.74.51L165,73.26a2.3,2.3,0,0,0,2.22,1.48,2.35,2.35,0,0,0,2.18-1.37L177,53a.78.78,0,0,1,.72-.44.76.76,0,0,1,.76.59l2.69,14c.66,4.14,4.59,7.33,9.33,7.33h4.19Z"/><path class="cls-1" d="M209.15,41.32h11.38V35.81H202.18a6,6,0,0,0-6.2,5.6V68.88a5.34,5.34,0,0,0,.6,2.38A6.29,6.29,0,0,0,202,74.47h18.49V69H209.15a1.82,1.82,0,0,1-1.9-1.73V58.79a1.17,1.17,0,0,1,1.23-1.1h7.45a4.4,4.4,0,0,0,4.57-4.11s0,0,0-.07,0,0,0-.07v-.9h-12a1.17,1.17,0,0,1-1.23-1.1V43.05a1.82,1.82,0,0,1,1.9-1.73"/><path class="cls-1" d="M143.29,42.3h0a1.5,1.5,0,0,0,0-.22V35.81H131.6V66.88c0,1.51-2,2.32-3.65,2.32s-3.89-.81-3.89-2.32l0-24.49v-.18c-.06-3.49-3.13-6.3-7-6.39h-4.76V64.49c0,7,7.78,11.3,15.29,11.3s15.63-4.32,15.63-11.3Z"/><path class="cls-1" d="M156.54,30.57c5.29,0,11-2.73,11-7.16V4.63h-7.7V25c0,1.22-1.57,1.95-3.08,1.95-1.31,0-3.25-.62-3.25-1.95V8.52c0-2.12-2.09-3.83-4.67-3.89h-3.05V23.41C145.79,27.84,151.37,30.57,156.54,30.57Z"/><path class="cls-1" d="M110.51,26.35l.36,1.35c.15.77.81,2.43,3.92,2.22V16.69h-9.2V21h3.56l-.17.79a4.94,4.94,0,0,1-4.63,3.52c-2.57,0-5.63-1.34-5.63-7.7,0-5.34,1.84-8.28,5.17-8.28a4.47,4.47,0,0,1,4.48,3.29h6c-1.06-5.24-4.9-8.35-10.35-8.35-7.08,0-11.65,5.25-11.65,13.37,0,9.39,5.78,12.72,10.73,12.72a7.79,7.79,0,0,0,6.55-2.91Z"/><path class="cls-1" d="M134.55,26.19a3.88,3.88,0,0,0,1.4,3.35c1.49,1.08,3.8.79,4.62.63V25c0-4.85-1.27-5.37-3.57-6.31L135.3,18l1.76-.54c2.21-.67,3.48-2.76,3.48-5.74,0-4.17-1.63-6.75-9.75-6.75H120.35V30.21h6.35V20.62h3C133.78,20.62,134.55,22.58,134.55,26.19ZM126.7,9.74H131c2.34,0,3.8,1.29,3.8,3.37,0,3.11-3.28,3.11-4.35,3.11H126.7Z"/><path class="cls-1" d="M183.6,5H172.93V30.27c1,.09,3.67.18,5.22-1.08a3.16,3.16,0,0,0,1.13-2.59v-5h4.58c5.95,0,9.1-2.94,9.1-8.49C193,7.86,189.63,5,183.6,5Zm-.43,11.85h-3.89V9.74h2.88c4.18,0,4.81,2.13,4.81,3.4C187,15.52,185.62,16.83,183.17,16.83Z"/><path class="cls-1" d="M207.61,4.29c-7,0-11.65,5.16-11.65,12.83,0,8.18,4.47,13.26,11.65,13.26s11.69-5.17,11.69-13.19C219.3,10.77,215.69,4.29,207.61,4.29Zm0,21c-4.78,0-5.3-5.69-5.3-8.14,0-1.84.38-7.84,5.23-7.84a4.25,4.25,0,0,1,3.15,1.14c1.44,1.32,2.26,3.76,2.26,6.7C213,22.44,211.05,25.33,207.61,25.33Z"/><path class="cls-1" d="M65.18,41.12A26.61,26.61,0,0,1,38.42,67.88c-15,0-26.34-11.29-27.2-26.76a33.8,33.8,0,0,1,3.47-17.24s2.06.25,7.38,2.71c4.93,2.28,9.69,6.46,9.69,14.12S26,57.91,39.46,59.9C63.83,63.52,65.18,41.12,65.18,41.12Z"/><path class="cls-2" d="M34,56.18s17.43,3.61,15.26-34C48-.2,64.57,0,64.57,0V35.44S61.45,65.4,34,56.18Z"/><path class="cls-1" d="M74.66,46c0-.27.09-.54.12-.81.08-.55.13-1.11.18-1.66,0-.26.05-.51.07-.77,0-.81.09-1.62.09-2.43h0c0-.69,0-1.38-.07-2.07,0-.11,0-.23,0-.35a36.25,36.25,0,0,0-7.77-20.2.64.64,0,0,0-.89-.11.62.62,0,0,0-.11.87,36.37,36.37,0,0,1,3.43,5.22h0A35.39,35.39,0,0,1,73.78,38c0,.12,0,.23,0,.34,0,.67.06,1.33.06,2h0q0,.95-.06,1.89c0,.13,0,.26,0,.39,0,.6-.09,1.2-.16,1.8,0,.13,0,.25-.05.38-.06.51-.14,1-.23,1.53,0,.14,0,.27-.07.41-.09.53-.21,1.06-.33,1.59A36,36,0,0,1,53.55,72.37l-.45.21c-.39.19-.78.36-1.17.53l-.75.3-1,.39-1.53.52-.29.09c-.66.2-1.33.38-2,.55L46,75c-.56.13-1.11.25-1.67.36l-.49.08c-.52.09-1.05.17-1.57.24l-.55.07c-.52.06-1,.1-1.57.14l-.53,0q-1,.06-2.07.06c-20,0-36.3-16-36.3-35.71S17.54,4.61,37.56,4.61c.64,0,1.28,0,1.92.06l.47,0q.88,0,1.74.15h.18c.64.08,1.27.17,1.9.28l.44.08c.52.09,1,.2,1.56.32a33.09,33.09,0,0,1,3.34.92.62.62,0,1,0,.4-1.18c-1-.34-2.1-.63-3.17-.89h0l-.25-.06C45.53,4.21,45,4.1,44.43,4L44,3.92c-.66-.11-1.31-.21-2-.29h-.17c-.61-.07-1.21-.12-1.81-.16l-.5,0c-.66,0-1.32-.06-2-.06C16.85,3.37,0,20,0,40.32S16.85,77.27,37.56,77.27c.72,0,1.43,0,2.15-.07l.53,0c.55,0,1.1-.08,1.64-.14l.55-.07c.55-.07,1.1-.16,1.65-.25l.48-.09c.6-.11,1.19-.23,1.77-.37l.34-.08c.7-.17,1.4-.36,2.08-.57l.18-.06c.58-.18,1.15-.37,1.71-.58l1-.37.84-.35c.39-.16.78-.34,1.16-.51l.53-.26c.31-.15.61-.28.91-.44,0,0,.05,0,.07,0A37.25,37.25,0,0,0,74,49.09a.94.94,0,0,0,.06-.15c0-.2.08-.4.13-.6s.1-.46.14-.69C74.47,47.1,74.57,46.55,74.66,46Z"/><path class="cls-1" d="M71.43,16a3.58,3.58,0,0,1-1.12-.74,3.68,3.68,0,0,1-.76-1.1,3.55,3.55,0,0,1-.28-1.35,3.4,3.4,0,0,1,.28-1.35,3.24,3.24,0,0,1,.76-1.1,3.16,3.16,0,0,1,1.12-.75,3.61,3.61,0,0,1,2.74,0,3.25,3.25,0,0,1,1.12.75,3.08,3.08,0,0,1,.75,1.1,3.23,3.23,0,0,1,.28,1.35A3.37,3.37,0,0,1,76,14.19a3.47,3.47,0,0,1-.75,1.1,3.7,3.7,0,0,1-1.12.74,3.61,3.61,0,0,1-2.74,0Zm-.59-5.13A2.73,2.73,0,0,0,70,12.84a2.67,2.67,0,0,0,.81,1.92,2.8,2.8,0,0,0,3.92,0,2.67,2.67,0,0,0,.81-1.92,2.73,2.73,0,0,0-.81-1.94,2.83,2.83,0,0,0-3.92,0Zm3.45,3.91h-.7l-1-1.34h-.46v1.34h-.63V10.87h1.19a1.34,1.34,0,0,1,1,2.22,1,1,0,0,1-.46.29Zm-1.61-1.89a.73.73,0,0,0,.58-.21.9.9,0,0,0,0-1.08.73.73,0,0,0-.58-.21h-.56v1.5Z"/></g></g></svg>